Coordinates
version=1
nRows=9
nColumns=60
inDegrees=yes

Units are S.I. units (second, meters, Newtons, ...)
If the header above contains a line with 'inDegrees', this indicates whether rotational values are in degrees (yes) or radians (no).

endheader
time	pelvis_tilt	pelvis_list	pelvis_rotation	pelvis_tx	pelvis_ty	pelvis_tz	hip_flexion_r	hip_adduction_r	hip_rotation_r	knee_angle_r_beta	knee_angle_r	ankle_angle_r	subtalar_angle_r	mtp_angle_r	hip_flexion_l	hip_adduction_l	hip_rotation_l	knee_angle_l_beta	knee_angle_l	ankle_angle_l	subtalar_angle_l	mtp_angle_l	L5_S1_Flex_Ext	L5_S1_Lat_Bending	L5_S1_axial_rotation	L4_L5_Flex_Ext	L4_L5_Lat_Bending	L4_L5_axial_rotation	L3_L4_Flex_Ext	L3_L4_Lat_Bending	L3_L4_axial_rotation	L2_L3_Flex_Ext	L2_L3_Lat_Bending	L2_L3_axial_rotation	L1_L2_Flex_Ext	L1_L2_Lat_Bending	L1_L2_axial_rotation	L1_T12_Flex_Ext	L1_T12_Lat_Bending	L1_T12_axial_rotation	Abs_r3	Abs_r2	Abs_r1	Abs_t1	Abs_t2	arm_flex_r	arm_add_r	arm_rot_r	elbow_flex_r	pro_sup_r	wrist_flex_r	wrist_dev_r	arm_flex_l	arm_add_l	arm_rot_l	elbow_flex_l	pro_sup_l	wrist_flex_l	wrist_dev_l
     63.49000000	      0.96363220	     10.16419793	     88.19637770	      0.40053743	      0.94356546	      0.29849414	      1.11251175	     -4.45227173	      2.01529604	      0.26182139	    -15.00126060	      5.76344240	      0.00000000	      0.00000000	      0.76196602	     -6.27987790	     -5.62522955	      0.26809920	    -15.36095284	      8.46581458	      0.00000000	      0.00000000	     -6.47301737	      0.03545358	      0.16709230	    -12.02104055	      0.04715327	      0.17753557	    -10.63452023	      0.08620184	      0.17753557	     -7.39801155	      0.08620184	      0.14620577	     -6.01084393	      0.07229695	      0.13576250	     -3.69868212	      0.05491760	      0.12531923	    -46.23611574	      0.40105804	      0.92931727	      0.00000000	      0.00000000	     64.49880751	    -24.05017150	     24.75371293	     61.37916832	     53.23486731	     -4.00165313	     30.11421117	     66.86706634	    -25.57030811	     31.72152437	     55.08496555	     45.19346517	      5.29652455	     20.83750922
     63.50000000	      0.88574604	      9.91639914	     88.30257589	      0.40031824	      0.94350941	      0.29933124	      1.39084020	     -4.52669391	      2.00837227	      0.26071505	    -14.93787205	      5.61428696	      0.00000000	      0.00000000	      0.96306277	     -6.18796004	     -5.53187546	      0.26283688	    -15.05944373	      8.17112488	      0.00000000	      0.00000000	     -6.47635103	      0.02763638	      0.14126146	    -12.02723149	      0.03675639	      0.15009030	    -10.63999710	      0.06719511	      0.15009030	     -7.40182159	      0.06719511	      0.12360377	     -6.01393956	      0.05635612	      0.11477493	     -3.70058698	      0.04280876	      0.10594609	    -46.25992775	      0.31262831	      0.78565384	      0.00000000	      0.00000000	     65.75517896	    -23.52688551	     25.20254219	     59.74654632	     53.93338495	     -3.92445580	     29.87083931	     68.05901083	    -25.15999382	     32.27249580	     53.50303754	     45.69686213	      5.23444996	     20.70188046
     63.51000000	      0.80891391	      9.64988307	     88.40106736	      0.40008775	      0.94342516	      0.30015332	      1.69155543	     -4.60393739	      1.99084955	      0.25927052	    -14.85510666	      5.48544688	      0.00000000	      0.00000000	      1.19994536	     -6.09216104	     -5.45309771	      0.25821802	    -14.79480280	      7.92264839	      0.00000000	      0.00000000	     -6.47747825	      0.01710269	      0.13237824	    -12.02932485	      0.02274658	      0.14065188	    -10.64184901	      0.04158348	      0.14065188	     -7.40310989	      0.04158348	      0.11583096	     -6.01498630	      0.03487581	      0.10755732	     -3.70123107	      0.02649207	      0.09928368	    -46.26797938	      0.19346905	      0.73624807	      0.00000000	      0.00000000	     66.93187190	    -23.12508817	     25.55102192	     58.04496407	     54.20008350	     -3.70268222	     29.45046857	     69.27094932	    -24.57557345	     32.74907893	     51.91943427	     45.88621181	      5.27862765	     20.48761076
     63.52000000	      0.74571940	      9.41506755	     88.49711183	      0.39985053	      0.94334279	      0.30097925	      1.97712426	     -4.66299949	      2.07302746	      0.25891226	    -14.83457952	      5.35268509	      0.00000000	      0.00000000	      1.44475477	     -6.01134576	     -5.35763606	      0.25514810	    -14.61890914	      7.71329262	      0.00000000	      0.00000000	     -6.48063104	      0.01013689	      0.13259287	    -12.03517991	      0.01348206	      0.14087992	    -10.64702874	      0.02464684	      0.14087992	     -7.40671322	      0.02464684	      0.11601876	     -6.01791399	      0.02067115	      0.10773170	     -3.70303258	      0.01570204	      0.09944465	    -46.29049947	      0.11467053	      0.73744174	      0.00000000	      0.00000000	     68.11775074	    -23.01033036	     26.45240611	     56.39611018	     52.27901982	     -1.83379041	     26.86948479	     70.64130552	    -24.13672475	     34.03133820	     50.21963241	     44.60143318	      6.32894382	     19.05957482
     63.53000000	      0.67631854	      9.10338971	     88.56373291	      0.39958438	      0.94316757	      0.30168041	      2.32328802	     -4.74138435	      2.07640239	      0.25746295	    -14.75154046	      5.22903934	      0.00000000	      0.00000000	      1.74017259	     -5.91437332	     -5.32254673	      0.25127473	    -14.39698159	      7.51323425	      0.00000000	      0.00000000	     -6.47656846	      0.00554707	      0.12040624	    -12.02763529	      0.00737761	      0.12793163	    -10.64035432	      0.01348715	      0.12793163	     -7.40207009	      0.01348715	      0.10535546	     -6.01414147	      0.01131159	      0.09783007	     -3.70071122	      0.00859242	      0.09030468	    -46.26148085	      0.06274960	      0.66966341	      0.00000000	      0.00000000	     69.29904735	    -22.57887069	     26.91076913	     54.79436760	     52.88414301	     -1.67694364	     26.60290442	     71.69232876	    -23.74768418	     34.68460578	     48.84585415	     44.99986069	      6.28351106	     18.89666375
     63.54000000	      0.66142065	      8.84644613	     88.62812047	      0.39942153	      0.94305071	      0.30230450	      2.61318840	     -4.74543885	      2.15475644	      0.25681197	    -14.71424216	      5.07397562	      0.00000000	      0.00000000	      2.00597983	     -5.89421500	     -5.25430115	      0.24867014	    -14.24774940	      7.33735335	      0.00000000	      0.00000000	     -6.47417846	     -0.00017441	      0.11150602	    -12.02319681	     -0.00023197	      0.11847515	    -10.63642778	     -0.00042407	      0.11847515	     -7.39933856	     -0.00042407	      0.09756777	     -6.01192211	     -0.00035566	      0.09059864	     -3.69934557	     -0.00027016	      0.08362951	    -46.24440929	     -0.00197299	      0.62016303	      0.00000000	      0.00000000	     70.45921581	    -22.36346927	     27.92623422	     53.03758947	     51.93615069	     -0.10354067	     24.76286979	     72.94640384	    -23.44504387	     36.11259840	     47.28355506	     44.07427698	      6.80699916	     17.64439080
     63.55000000	      0.66819639	      8.56776064	     88.66764979	      0.39922332	      0.94294067	      0.30280612	      2.91132777	     -4.73344326	      2.19210286	      0.25558580	    -14.64398754	      4.91889388	      0.00000000	      0.00000000	      2.27973553	     -5.89093691	     -5.18932936	      0.24606911	    -14.09872137	      7.18088002	      0.00000000	      0.00000000	     -6.47354591	      0.00163948	      0.10914725	    -12.02202211	      0.00218051	      0.11596895	    -10.63538858	      0.00398623	      0.11596895	     -7.39861562	      0.00398623	      0.09550384	     -6.01133473	      0.00334323	      0.08868214	     -3.69898413	      0.00253955	      0.08186044	    -46.23989109	      0.01854613	      0.60704425	      0.00000000	      0.00000000	     71.55670211	    -22.01213399	     28.53787420	     51.44971915	     52.44162512	      0.07903387	     24.50551110	     73.97453637	    -23.05016492	     36.97558697	     45.91122158	     44.32962876	      6.73294346	     17.47080045
     63.56000000	      0.71582451	      8.32801112	     88.68750784	      0.39906706	      0.94286861	      0.30326536	      3.16700097	     -4.67846023	      2.25517127	      0.25450121	    -14.58184523	      4.72686945	      0.00000000	      0.00000000	      2.52000415	     -5.93069978	     -5.11478392	      0.24399256	    -13.97974421	      7.02867327	      0.00000000	      0.00000000	     -6.48568188	      0.00718165	      0.09606387	    -12.04455981	      0.00955160	      0.10206786	    -10.65532676	      0.01746147	      0.10206786	     -7.41248582	      0.01746147	      0.08405589	     -6.02260419	      0.01464483	      0.07805189	     -3.70591862	      0.01112438	      0.07204790	    -46.32657708	      0.08124030	      0.53427843	      0.00000000	      0.00000000	     72.67261703	    -21.70121380	     29.38199168	     50.13680946	     53.19666779	      0.16559278	     24.36397506	     74.95533202	    -22.97469779	     38.13271220	     44.89884367	     44.83160172	      6.68117073	     17.38776074
     63.57000000	      0.79247951	      8.08839722	     88.71134103	      0.39885340	      0.94282018	      0.30356360	      3.38398236	     -4.60297477	      2.23729243	      0.25229544	    -14.45546410	      4.50193305	      0.00000000	      0.00000000	      2.73999052	     -5.99851276	     -5.02046256	      0.24171060	    -13.84899724	      6.87566663	      0.00000000	      0.00000000	     -6.49065747	      0.01821632	      0.10102875	    -12.05379998	      0.02422771	      0.10734304	    -10.66350116	      0.04429117	      0.10734304	     -7.41817242	      0.04429117	      0.08840015	     -6.02722453	      0.03714673	      0.08208586	     -3.70876168	      0.02821709	      0.07577156	    -46.36211723	      0.20606670	      0.56189159	      0.00000000	      0.00000000	     73.65607141	    -21.36786591	     29.96392988	     48.65197259	     53.51657073	      0.32260814	     24.11724927	     75.88267279	    -22.59581116	     39.00652293	     43.61910388	     44.95487889	      6.62998881	     17.23768966
